<svg xmlns="http://www.w3.org/2000/svg" version="1.1" xmlns:xlink="http://www.w3.org/1999/xlink" xmlns:svgjs="http://svgjs.dev/svgjs" width="1500" height="1500" viewBox="0 0 1500 1500"><rect width="1500" height="1500" fill="#ffffff"></rect><g transform="matrix(0.6666666666666666,0,0,0.6666666666666666,249.39393939393943,574.1653645350992)"><svg viewBox="0 0 396 139" data-background-color="#ffffff" preserveAspectRatio="xMidYMid meet" height="526" width="1500" xmlns="http://www.w3.org/2000/svg" xmlns:xlink="http://www.w3.org/1999/xlink"><g id="tight-bounds" transform="matrix(1,0,0,1,0.2400000000000091,0.19871006545972136)"><svg viewBox="0 0 395.52 138.60257986908056" height="138.60257986908056" width="395.52"><g><svg viewBox="0 0 643.4883592620479 225.49844940696198" height="138.60257986908056" width="395.52"><g transform="matrix(1,0,0,1,247.96835926204795,31.165125786345698)"><svg viewBox="0 0 395.52 163.1681978342706" height="163.1681978342706" width="395.52"><g id="textblocktransform"><svg viewBox="0 0 395.52 163.1681978342706" height="163.1681978342706" width="395.52" id="textblock"><g><svg viewBox="0 0 395.52 111.8195101469559" height="111.8195101469559" width="395.52"><g transform="matrix(1,0,0,1,0,0)"><svg width="395.52" viewBox="3 -39.65 142.89 40.4" height="111.8195101469559" data-palette-color="#38d622"><path d="M3-34.55L9.35-34.55 9.35-5.25 20.5-5.25 19.8 0 3 0 3-34.55ZM23.7-26.45L29.85-26.45 29.85 0 23.7 0 23.7-26.45ZM26.75-39.65Q28.4-39.65 29.42-38.6 30.45-37.55 30.45-35.9L30.45-35.9Q30.45-34.3 29.42-33.25 28.4-32.2 26.75-32.2L26.75-32.2Q25.1-32.2 24.07-33.25 23.05-34.3 23.05-35.9L23.05-35.9Q23.05-37.55 24.07-38.6 25.1-39.65 26.75-39.65L26.75-39.65ZM46.7-5L48.85-1.2Q46.4 0.75 43.1 0.75L43.1 0.75Q39.65 0.75 37.85-1.23 36.05-3.2 36.05-6.6L36.05-6.6 36.05-22 32.95-22 32.95-26.45 36.05-26.45 36.05-32.3 42.2-33.05 42.2-26.45 47.2-26.45 46.6-22 42.2-22 42.2-6.6Q42.2-4.2 44.25-4.2L44.25-4.2Q44.9-4.2 45.4-4.38 45.9-4.55 46.7-5L46.7-5ZM65.59-18.3Q68.94-17.55 70.87-15.63 72.79-13.7 72.79-9.9L72.79-9.9Q72.79-4.9 69.42-2.45 66.04 0 60.24 0L60.24 0 51.54 0 51.54-34.55 59.09-34.55Q65.04-34.55 68.29-32.3 71.54-30.05 71.54-25.75L71.54-25.75Q71.54-22.85 69.92-20.95 68.29-19.05 65.59-18.3L65.59-18.3ZM59.74-29.85L57.89-29.85 57.89-20.3 60.04-20.3Q65.09-20.3 65.09-25.2L65.09-25.2Q65.09-27.65 63.82-28.75 62.54-29.85 59.74-29.85L59.74-29.85ZM60.29-4.8Q63.19-4.8 64.69-6.03 66.19-7.25 66.19-10.15L66.19-10.15Q66.19-13.05 64.79-14.43 63.39-15.8 60.44-15.8L60.44-15.8 57.89-15.8 57.89-4.8 60.29-4.8ZM86.19-27.15Q91.19-27.15 93.97-23.65 96.74-20.15 96.74-13.25L96.74-13.25Q96.74-6.65 93.94-2.95 91.14 0.75 86.19 0.75L86.19 0.75Q81.24 0.75 78.44-2.88 75.64-6.5 75.64-13.25L75.64-13.25Q75.64-19.95 78.44-23.55 81.24-27.15 86.19-27.15L86.19-27.15ZM86.19-22.5Q84.04-22.5 83.04-20.38 82.04-18.25 82.04-13.25L82.04-13.25Q82.04-8.2 83.04-6.08 84.04-3.95 86.19-3.95L86.19-3.95Q88.34-3.95 89.34-6.08 90.34-8.2 90.34-13.25L90.34-13.25Q90.34-18.3 89.34-20.4 88.34-22.5 86.19-22.5L86.19-22.5ZM110.69-27.15Q115.69-27.15 118.46-23.65 121.24-20.15 121.24-13.25L121.24-13.25Q121.24-6.65 118.44-2.95 115.64 0.75 110.69 0.75L110.69 0.75Q105.74 0.75 102.94-2.88 100.14-6.5 100.14-13.25L100.14-13.25Q100.14-19.95 102.94-23.55 105.74-27.15 110.69-27.15L110.69-27.15ZM110.69-22.5Q108.54-22.5 107.54-20.38 106.54-18.25 106.54-13.25L106.54-13.25Q106.54-8.2 107.54-6.08 108.54-3.95 110.69-3.95L110.69-3.95Q112.84-3.95 113.84-6.08 114.84-8.2 114.84-13.25L114.84-13.25Q114.84-18.3 113.84-20.4 112.84-22.5 110.69-22.5L110.69-22.5ZM125.79-37.05L131.94-37.7 131.94 0 125.79 0 125.79-37.05ZM139.29-26.45L145.29-26.45 138.29-14.75 145.89 0 139.29 0 132.19-14.45 139.29-26.45Z" opacity="1" transform="matrix(1,0,0,1,0,0)" fill="#000000" class="wordmark-text-0" data-fill-palette-color="primary" id="text-0"></path></svg></g></svg></g><g transform="matrix(1,0,0,1,0,138.21741282440865)"><svg viewBox="0 0 375.74399999999997 24.950785009861935" height="24.950785009861935" width="375.74399999999997"><g transform="matrix(1,0,0,1,0,0)"><svg width="375.74399999999997" viewBox="0.4 -39.65 760.41 50.5" height="24.950785009861935" data-palette-color="#217012"><path d="M0.4-34.55L21.95-34.55 21.25-29.55 14.15-29.55 14.15 0 7.8 0 7.8-29.55 0.4-29.55 0.4-34.55ZM34.25-27.15Q39.25-27.15 42.02-23.65 44.8-20.15 44.8-13.25L44.8-13.25Q44.8-6.65 42-2.95 39.2 0.75 34.25 0.75L34.25 0.75Q29.3 0.75 26.5-2.88 23.7-6.5 23.7-13.25L23.7-13.25Q23.7-19.95 26.5-23.55 29.3-27.15 34.25-27.15L34.25-27.15ZM34.25-22.5Q32.1-22.5 31.1-20.38 30.1-18.25 30.1-13.25L30.1-13.25Q30.1-8.2 31.1-6.08 32.1-3.95 34.25-3.95L34.25-3.95Q36.4-3.95 37.4-6.08 38.4-8.2 38.4-13.25L38.4-13.25Q38.4-18.3 37.4-20.4 36.4-22.5 34.25-22.5L34.25-22.5ZM67.5-26.45L67.5 0 62.15 0 61.85-3.35Q60.6-1.3 59.05-0.28 57.5 0.75 55.45 0.75L55.45 0.75Q52.55 0.75 50.87-1.3 49.2-3.35 49.2-6.65L49.2-6.65 49.2-26.45 55.35-26.45 55.35-7Q55.35-3.9 57.45-3.9L57.45-3.9Q58.65-3.9 59.6-4.83 60.55-5.75 61.35-7.45L61.35-7.45 61.35-26.45 67.5-26.45ZM91.14-29.85L92.69-25.1Q91.64-24.6 90.17-24.4 88.69-24.2 86.49-24.2L86.49-24.2Q88.59-23.2 89.62-21.53 90.64-19.85 90.64-17.4L90.64-17.4Q90.64-13.4 88.19-10.95 85.74-8.5 81.54-8.5L81.54-8.5Q80.29-8.5 78.99-8.9L78.99-8.9Q78.09-8.15 78.09-6.85L78.09-6.85Q78.09-5.85 78.64-5.35 79.19-4.85 80.69-4.85L80.69-4.85 83.49-4.85Q87.49-4.85 89.84-2.78 92.19-0.7 92.19 2.5L92.19 2.5Q92.19 6.3 89.27 8.58 86.34 10.85 80.94 10.85L80.94 10.85Q75.24 10.85 72.97 8.75 70.69 6.65 70.69 2.6L70.69 2.6 76.14 2.6Q76.14 4.75 77.14 5.65 78.14 6.55 80.99 6.55L80.99 6.55Q83.74 6.55 84.89 5.6 86.04 4.65 86.04 2.9L86.04 2.9Q86.04 1.2 85.09 0.4 84.14-0.4 82.14-0.4L82.14-0.4 80.24-0.4Q76.44-0.4 74.69-1.75 72.94-3.1 72.94-5.45L72.94-5.45Q72.94-6.8 73.67-8.03 74.39-9.25 75.64-10.2L75.64-10.2Q73.59-11.5 72.64-13.3 71.69-15.1 71.69-17.7L71.69-17.7Q71.69-22.05 74.29-24.58 76.89-27.1 81.29-27.1L81.29-27.1Q84.54-27.1 86.67-27.8 88.79-28.5 91.14-29.85L91.14-29.85ZM81.29-23Q79.54-23 78.64-21.75 77.74-20.5 77.74-17.8L77.74-17.8Q77.74-15.25 78.64-13.88 79.54-12.5 81.24-12.5L81.24-12.5Q82.99-12.5 83.84-13.73 84.69-14.95 84.69-17.85L84.69-17.85Q84.69-20.55 83.87-21.78 83.04-23 81.29-23L81.29-23ZM107.79-27.15Q110.64-27.15 112.29-25.1 113.94-23.05 113.94-19.6L113.94-19.6 113.94 0 107.79 0 107.79-18.9Q107.79-20.8 107.27-21.63 106.74-22.45 105.74-22.45L105.74-22.45Q103.64-22.45 101.59-18.5L101.59-18.5 101.59 0 95.44 0 95.44-37 101.59-37.65 101.59-23.3Q102.84-25.25 104.31-26.2 105.79-27.15 107.79-27.15L107.79-27.15ZM140.99-35.25Q143.64-35.25 145.66-34.38 147.69-33.5 149.59-31.7L149.59-31.7 146.54-28.05Q145.24-29.25 144.01-29.83 142.79-30.4 141.34-30.4L141.34-30.4Q138.34-30.4 136.64-27.4 134.94-24.4 134.94-17.35L134.94-17.35Q134.94-10.4 136.64-7.38 138.34-4.35 141.44-4.35L141.44-4.35Q142.99-4.35 144.14-4.98 145.29-5.6 146.84-6.9L146.84-6.9 149.89-3.4Q148.29-1.6 146.04-0.43 143.79 0.75 140.99 0.75L140.99 0.75Q135.14 0.75 131.69-3.8 128.24-8.35 128.24-17.35L128.24-17.35Q128.24-23.3 129.89-27.3 131.54-31.3 134.41-33.27 137.29-35.25 140.99-35.25L140.99-35.25ZM162.53-27.15Q167.53-27.15 170.31-23.65 173.08-20.15 173.08-13.25L173.08-13.25Q173.08-6.65 170.28-2.95 167.48 0.75 162.53 0.75L162.53 0.75Q157.58 0.75 154.78-2.88 151.98-6.5 151.98-13.25L151.98-13.25Q151.98-19.95 154.78-23.55 157.58-27.15 162.53-27.15L162.53-27.15ZM162.53-22.5Q160.38-22.5 159.38-20.38 158.38-18.25 158.38-13.25L158.38-13.25Q158.38-8.2 159.38-6.08 160.38-3.95 162.53-3.95L162.53-3.95Q164.68-3.95 165.68-6.08 166.68-8.2 166.68-13.25L166.68-13.25Q166.68-18.3 165.68-20.4 164.68-22.5 162.53-22.5L162.53-22.5ZM189.98-27.15Q192.83-27.15 194.48-25.1 196.13-23.05 196.13-19.6L196.13-19.6 196.13 0 189.98 0 189.98-18.9Q189.98-20.8 189.46-21.63 188.93-22.45 187.93-22.45L187.93-22.45Q185.83-22.45 183.78-18.5L183.78-18.5 183.78 0 177.63 0 177.63-26.45 182.98-26.45 183.43-23Q184.78-25.1 186.31-26.13 187.83-27.15 189.98-27.15L189.98-27.15ZM214.03-27.15Q216.88-27.15 218.53-25.1 220.18-23.05 220.18-19.6L220.18-19.6 220.18 0 214.03 0 214.03-18.9Q214.03-20.8 213.5-21.63 212.98-22.45 211.98-22.45L211.98-22.45Q209.88-22.45 207.83-18.5L207.83-18.5 207.83 0 201.68 0 201.68-26.45 207.03-26.45 207.48-23Q208.83-25.1 210.35-26.13 211.88-27.15 214.03-27.15L214.03-27.15ZM244.58-13.85Q244.58-13.4 244.43-11.3L244.43-11.3 230.78-11.3Q230.98-7.2 232.2-5.58 233.43-3.95 235.68-3.95L235.68-3.95Q237.23-3.95 238.48-4.48 239.73-5 241.18-6.15L241.18-6.15 243.73-2.65Q240.23 0.75 235.33 0.75L235.33 0.75Q230.13 0.75 227.35-2.85 224.58-6.45 224.58-13L224.58-13Q224.58-19.55 227.23-23.35 229.88-27.15 234.73-27.15L234.73-27.15Q239.38-27.15 241.98-23.78 244.58-20.4 244.58-13.85L244.58-13.85ZM238.58-15.3L238.58-15.65Q238.58-19.4 237.68-21.13 236.78-22.85 234.78-22.85L234.78-22.85Q232.93-22.85 231.95-21.18 230.98-19.5 230.78-15.3L230.78-15.3 238.58-15.3ZM258.37-27.15Q260.52-27.15 262.27-26.43 264.02-25.7 265.62-24.15L265.62-24.15 262.97-20.65Q261.87-21.55 260.9-21.98 259.92-22.4 258.77-22.4L258.77-22.4Q256.52-22.4 255.37-20.28 254.22-18.15 254.22-13.1L254.22-13.1Q254.22-8.2 255.4-6.2 256.57-4.2 258.77-4.2L258.77-4.2Q259.87-4.2 260.77-4.6 261.67-5 262.87-5.85L262.87-5.85 265.62-2.3Q262.42 0.75 258.47 0.75L258.47 0.75Q253.37 0.75 250.55-2.73 247.72-6.2 247.72-13L247.72-13Q247.72-17.4 249.02-20.6 250.32-23.8 252.75-25.48 255.17-27.15 258.37-27.15L258.37-27.15ZM279.82-5L281.97-1.2Q279.52 0.75 276.22 0.75L276.22 0.75Q272.77 0.75 270.97-1.23 269.17-3.2 269.17-6.6L269.17-6.6 269.17-22 266.07-22 266.07-26.45 269.17-26.45 269.17-32.3 275.32-33.05 275.32-26.45 280.32-26.45 279.72-22 275.32-22 275.32-6.6Q275.32-4.2 277.37-4.2L277.37-4.2Q278.02-4.2 278.52-4.38 279.02-4.55 279.82-5L279.82-5ZM284.52-26.45L290.67-26.45 290.67 0 284.52 0 284.52-26.45ZM287.57-39.65Q289.22-39.65 290.24-38.6 291.27-37.55 291.27-35.9L291.27-35.9Q291.27-34.3 290.24-33.25 289.22-32.2 287.57-32.2L287.57-32.2Q285.92-32.2 284.89-33.25 283.87-34.3 283.87-35.9L283.87-35.9Q283.87-37.55 284.89-38.6 285.92-39.65 287.57-39.65L287.57-39.65ZM305.77-27.15Q310.77-27.15 313.54-23.65 316.32-20.15 316.32-13.25L316.32-13.25Q316.32-6.65 313.52-2.95 310.72 0.75 305.77 0.75L305.77 0.75Q300.82 0.75 298.02-2.88 295.22-6.5 295.22-13.25L295.22-13.25Q295.22-19.95 298.02-23.55 300.82-27.15 305.77-27.15L305.77-27.15ZM305.77-22.5Q303.62-22.5 302.62-20.38 301.62-18.25 301.62-13.25L301.62-13.25Q301.62-8.2 302.62-6.08 303.62-3.95 305.77-3.95L305.77-3.95Q307.92-3.95 308.92-6.08 309.92-8.2 309.92-13.25L309.92-13.25Q309.92-18.3 308.92-20.4 307.92-22.5 305.77-22.5L305.77-22.5ZM333.21-27.15Q336.06-27.15 337.71-25.1 339.36-23.05 339.36-19.6L339.36-19.6 339.36 0 333.21 0 333.21-18.9Q333.21-20.8 332.69-21.63 332.16-22.45 331.16-22.45L331.16-22.45Q329.06-22.45 327.01-18.5L327.01-18.5 327.01 0 320.86 0 320.86-26.45 326.21-26.45 326.66-23Q328.01-25.1 329.54-26.13 331.06-27.15 333.21-27.15L333.21-27.15ZM352.26-27.15Q356.96-27.15 360.21-24.05L360.21-24.05 357.86-20.7Q356.46-21.7 355.21-22.2 353.96-22.7 352.66-22.7L352.66-22.7Q351.21-22.7 350.39-21.93 349.56-21.15 349.56-19.8L349.56-19.8Q349.56-18.45 350.49-17.63 351.41-16.8 354.21-15.7L354.21-15.7Q357.66-14.35 359.31-12.5 360.96-10.65 360.96-7.55L360.96-7.55Q360.96-3.7 358.26-1.48 355.56 0.75 351.41 0.75L351.41 0.75Q348.71 0.75 346.44-0.23 344.16-1.2 342.46-2.95L342.46-2.95 345.46-6.25Q348.26-3.8 351.16-3.8L351.16-3.8Q352.81-3.8 353.76-4.67 354.71-5.55 354.71-7.1L354.71-7.1Q354.71-8.25 354.31-8.97 353.91-9.7 352.91-10.33 351.91-10.95 349.91-11.7L349.91-11.7Q346.46-13.05 344.99-14.85 343.51-16.65 343.51-19.45L343.51-19.45Q343.51-22.8 345.89-24.98 348.26-27.15 352.26-27.15L352.26-27.15ZM367.31-7.05Q369.01-7.05 370.06-5.9 371.11-4.75 371.11-3.15L371.11-3.15Q371.11-1.55 370.06-0.4 369.01 0.75 367.31 0.75L367.31 0.75Q365.66 0.75 364.58-0.4 363.51-1.55 363.51-3.15L363.51-3.15Q363.51-4.75 364.58-5.9 365.66-7.05 367.31-7.05L367.31-7.05ZM399.6-18.3Q402.95-17.55 404.88-15.63 406.8-13.7 406.8-9.9L406.8-9.9Q406.8-4.9 403.43-2.45 400.05 0 394.25 0L394.25 0 385.55 0 385.55-34.55 393.1-34.55Q399.05-34.55 402.3-32.3 405.55-30.05 405.55-25.75L405.55-25.75Q405.55-22.85 403.93-20.95 402.3-19.05 399.6-18.3L399.6-18.3ZM393.75-29.85L391.9-29.85 391.9-20.3 394.05-20.3Q399.1-20.3 399.1-25.2L399.1-25.2Q399.1-27.65 397.83-28.75 396.55-29.85 393.75-29.85L393.75-29.85ZM394.3-4.8Q397.2-4.8 398.7-6.03 400.2-7.25 400.2-10.15L400.2-10.15Q400.2-13.05 398.8-14.43 397.4-15.8 394.45-15.8L394.45-15.8 391.9-15.8 391.9-4.8 394.3-4.8ZM420.2-27.15Q425.2-27.15 427.98-23.65 430.75-20.15 430.75-13.25L430.75-13.25Q430.75-6.65 427.95-2.95 425.15 0.75 420.2 0.75L420.2 0.75Q415.25 0.75 412.45-2.88 409.65-6.5 409.65-13.25L409.65-13.25Q409.65-19.95 412.45-23.55 415.25-27.15 420.2-27.15L420.2-27.15ZM420.2-22.5Q418.05-22.5 417.05-20.38 416.05-18.25 416.05-13.25L416.05-13.25Q416.05-8.2 417.05-6.08 418.05-3.95 420.2-3.95L420.2-3.95Q422.35-3.95 423.35-6.08 424.35-8.2 424.35-13.25L424.35-13.25Q424.35-18.3 423.35-20.4 422.35-22.5 420.2-22.5L420.2-22.5ZM440.9 0.75Q438.2 0.75 436.62-0.93 435.05-2.6 435.05-5.4L435.05-5.4 435.05-37.05 441.2-37.7 441.2-5.65Q441.2-5 441.5-4.6 441.8-4.2 442.4-4.2L442.4-4.2Q442.75-4.2 443.07-4.3 443.4-4.4 443.5-4.4L443.5-4.4 444.7-0.2Q443 0.75 440.9 0.75L440.9 0.75ZM460.7-37.7L466.85-37.05 466.85 0 461.4 0 461.1-3.05Q458.75 0.75 455.05 0.75L455.05 0.75Q450.95 0.75 448.77-2.93 446.6-6.6 446.6-13.2L446.6-13.2Q446.6-17.4 447.72-20.58 448.85-23.75 450.85-25.45 452.85-27.15 455.45-27.15L455.45-27.15Q458.65-27.15 460.7-24.5L460.7-24.5 460.7-37.7ZM456.8-3.9Q457.95-3.9 458.87-4.7 459.8-5.5 460.7-7L460.7-7 460.7-19.85Q459.1-22.55 457.05-22.55L457.05-22.55Q453-22.55 453-13.25L453-13.25Q453-8.2 454-6.05 455-3.9 456.8-3.9L456.8-3.9ZM494.04-35.25Q496.69-35.25 498.72-34.38 500.74-33.5 502.64-31.7L502.64-31.7 499.59-28.05Q498.29-29.25 497.07-29.83 495.84-30.4 494.39-30.4L494.39-30.4Q491.39-30.4 489.69-27.4 487.99-24.4 487.99-17.35L487.99-17.35Q487.99-10.4 489.69-7.38 491.39-4.35 494.49-4.35L494.49-4.35Q496.04-4.35 497.19-4.98 498.34-5.6 499.89-6.9L499.89-6.9 502.94-3.4Q501.34-1.6 499.09-0.43 496.84 0.75 494.04 0.75L494.04 0.75Q488.19 0.75 484.74-3.8 481.29-8.35 481.29-17.35L481.29-17.35Q481.29-23.3 482.94-27.3 484.59-31.3 487.47-33.27 490.34-35.25 494.04-35.25L494.04-35.25ZM515.59-27.15Q520.59-27.15 523.36-23.65 526.14-20.15 526.14-13.25L526.14-13.25Q526.14-6.65 523.34-2.95 520.54 0.75 515.59 0.75L515.59 0.75Q510.64 0.75 507.84-2.88 505.04-6.5 505.04-13.25L505.04-13.25Q505.04-19.95 507.84-23.55 510.64-27.15 515.59-27.15L515.59-27.15ZM515.59-22.5Q513.44-22.5 512.44-20.38 511.44-18.25 511.44-13.25L511.44-13.25Q511.44-8.2 512.44-6.08 513.44-3.95 515.59-3.95L515.59-3.95Q517.74-3.95 518.74-6.08 519.74-8.2 519.74-13.25L519.74-13.25Q519.74-18.3 518.74-20.4 517.74-22.5 515.59-22.5L515.59-22.5ZM543.04-27.15Q545.88-27.15 547.54-25.1 549.19-23.05 549.19-19.6L549.19-19.6 549.19 0 543.04 0 543.04-18.9Q543.04-20.8 542.51-21.63 541.99-22.45 540.99-22.45L540.99-22.45Q538.88-22.45 536.84-18.5L536.84-18.5 536.84 0 530.69 0 530.69-26.45 536.04-26.45 536.49-23Q537.84-25.1 539.36-26.13 540.88-27.15 543.04-27.15L543.04-27.15ZM567.13-26.45L573.18-26.45 566.28 0 559.03 0 551.93-26.45 558.28-26.45 562.63-4.95 567.13-26.45ZM594.93-13.85Q594.93-13.4 594.78-11.3L594.78-11.3 581.13-11.3Q581.33-7.2 582.55-5.58 583.78-3.95 586.03-3.95L586.03-3.95Q587.58-3.95 588.83-4.48 590.08-5 591.53-6.15L591.53-6.15 594.08-2.65Q590.58 0.75 585.68 0.75L585.68 0.75Q580.48 0.75 577.7-2.85 574.93-6.45 574.93-13L574.93-13Q574.93-19.55 577.58-23.35 580.23-27.15 585.08-27.15L585.08-27.15Q589.73-27.15 592.33-23.78 594.93-20.4 594.93-13.85L594.93-13.85ZM588.93-15.3L588.93-15.65Q588.93-19.4 588.03-21.13 587.13-22.85 585.13-22.85L585.13-22.85Q583.28-22.85 582.3-21.18 581.33-19.5 581.13-15.3L581.13-15.3 588.93-15.3ZM610.88-27.1Q612.03-27.1 612.93-26.75L612.93-26.75 611.93-20.85Q610.93-21.1 610.08-21.1L610.08-21.1Q608.18-21.1 607.08-19.45 605.98-17.8 605.38-14.55L605.38-14.55 605.38 0 599.23 0 599.23-26.45 604.58-26.45 605.03-21.85Q606.88-27.1 610.88-27.1L610.88-27.1ZM623.12-27.15Q627.82-27.15 631.07-24.05L631.07-24.05 628.72-20.7Q627.32-21.7 626.07-22.2 624.82-22.7 623.52-22.7L623.52-22.7Q622.07-22.7 621.25-21.93 620.42-21.15 620.42-19.8L620.42-19.8Q620.42-18.45 621.35-17.63 622.27-16.8 625.07-15.7L625.07-15.7Q628.52-14.35 630.17-12.5 631.82-10.65 631.82-7.55L631.82-7.55Q631.82-3.7 629.12-1.48 626.42 0.75 622.27 0.75L622.27 0.75Q619.57 0.75 617.3-0.23 615.02-1.2 613.32-2.95L613.32-2.95 616.32-6.25Q619.12-3.8 622.02-3.8L622.02-3.8Q623.67-3.8 624.62-4.67 625.57-5.55 625.57-7.1L625.57-7.1Q625.57-8.25 625.17-8.97 624.77-9.7 623.77-10.33 622.77-10.95 620.77-11.7L620.77-11.7Q617.32-13.05 615.85-14.85 614.37-16.65 614.37-19.45L614.37-19.45Q614.37-22.8 616.75-24.98 619.12-27.15 623.12-27.15L623.12-27.15ZM652.57-6.4Q652.57-5.1 652.92-4.48 653.27-3.85 654.07-3.45L654.07-3.45 652.82 0.65Q650.77 0.4 649.55-0.45 648.32-1.3 647.72-3.05L647.72-3.05Q645.42 0.75 641.27 0.75L641.27 0.75Q637.97 0.75 636.02-1.48 634.07-3.7 634.07-7.4L634.07-7.4Q634.07-11.7 636.75-13.95 639.42-16.2 644.52-16.2L644.52-16.2 646.57-16.2 646.57-18.05Q646.57-20.55 645.7-21.58 644.82-22.6 642.87-22.6L642.87-22.6Q640.52-22.6 637.02-21.3L637.02-21.3 635.62-25.3Q637.62-26.2 639.77-26.68 641.92-27.15 643.87-27.15L643.87-27.15Q652.57-27.15 652.57-18.35L652.57-18.35 652.57-6.4ZM642.92-3.7Q645.32-3.7 646.57-7L646.57-7 646.57-12.55 645.12-12.55Q642.57-12.55 641.4-11.4 640.22-10.25 640.22-7.85L640.22-7.85Q640.22-5.8 640.92-4.75 641.62-3.7 642.92-3.7L642.92-3.7ZM669.52-5L671.67-1.2Q669.22 0.75 665.92 0.75L665.92 0.75Q662.47 0.75 660.67-1.23 658.87-3.2 658.87-6.6L658.87-6.6 658.87-22 655.77-22 655.77-26.45 658.87-26.45 658.87-32.3 665.02-33.05 665.02-26.45 670.02-26.45 669.42-22 665.02-22 665.02-6.6Q665.02-4.2 667.07-4.2L667.07-4.2Q667.72-4.2 668.22-4.38 668.72-4.55 669.52-5L669.52-5ZM674.22-26.45L680.37-26.45 680.37 0 674.22 0 674.22-26.45ZM677.27-39.65Q678.92-39.65 679.94-38.6 680.97-37.55 680.97-35.9L680.97-35.9Q680.97-34.3 679.94-33.25 678.92-32.2 677.27-32.2L677.27-32.2Q675.62-32.2 674.59-33.25 673.57-34.3 673.57-35.9L673.57-35.9Q673.57-37.55 674.59-38.6 675.62-39.65 677.27-39.65L677.27-39.65ZM695.46-27.15Q700.46-27.15 703.24-23.65 706.01-20.15 706.01-13.25L706.01-13.25Q706.01-6.65 703.21-2.95 700.41 0.75 695.46 0.75L695.46 0.75Q690.51 0.75 687.71-2.88 684.91-6.5 684.91-13.25L684.91-13.25Q684.91-19.95 687.71-23.55 690.51-27.15 695.46-27.15L695.46-27.15ZM695.46-22.5Q693.31-22.5 692.31-20.38 691.31-18.25 691.31-13.25L691.31-13.25Q691.31-8.2 692.31-6.08 693.31-3.95 695.46-3.95L695.46-3.95Q697.61-3.95 698.61-6.08 699.61-8.2 699.61-13.25L699.61-13.25Q699.61-18.3 698.61-20.4 697.61-22.5 695.46-22.5L695.46-22.5ZM722.91-27.15Q725.76-27.15 727.41-25.1 729.06-23.05 729.06-19.6L729.06-19.6 729.06 0 722.91 0 722.91-18.9Q722.91-20.8 722.39-21.63 721.86-22.45 720.86-22.45L720.86-22.45Q718.76-22.45 716.71-18.5L716.71-18.5 716.71 0 710.56 0 710.56-26.45 715.91-26.45 716.36-23Q717.71-25.1 719.24-26.13 720.76-27.15 722.91-27.15L722.91-27.15ZM741.96-27.15Q746.66-27.15 749.91-24.05L749.91-24.05 747.56-20.7Q746.16-21.7 744.91-22.2 743.66-22.7 742.36-22.7L742.36-22.7Q740.91-22.7 740.08-21.93 739.26-21.15 739.26-19.8L739.26-19.8Q739.26-18.45 740.18-17.63 741.11-16.8 743.91-15.7L743.91-15.7Q747.36-14.35 749.01-12.5 750.66-10.65 750.66-7.55L750.66-7.55Q750.66-3.7 747.96-1.48 745.26 0.75 741.11 0.75L741.11 0.75Q738.41 0.75 736.13-0.23 733.86-1.2 732.16-2.95L732.16-2.95 735.16-6.25Q737.96-3.8 740.86-3.8L740.86-3.8Q742.51-3.8 743.46-4.67 744.41-5.55 744.41-7.1L744.41-7.1Q744.41-8.25 744.01-8.97 743.61-9.7 742.61-10.33 741.61-10.95 739.61-11.7L739.61-11.7Q736.16-13.05 734.68-14.85 733.21-16.65 733.21-19.45L733.21-19.45Q733.21-22.8 735.58-24.98 737.96-27.15 741.96-27.15L741.96-27.15ZM757.01-7.05Q758.71-7.05 759.76-5.9 760.81-4.75 760.81-3.15L760.81-3.15Q760.81-1.55 759.76-0.4 758.71 0.75 757.01 0.75L757.01 0.75Q755.36 0.75 754.28-0.4 753.21-1.55 753.21-3.15L753.21-3.15Q753.21-4.75 754.28-5.9 755.36-7.05 757.01-7.05L757.01-7.05Z" opacity="1" transform="matrix(1,0,0,1,0,0)" fill="#000000" class="slogan-text-1" data-fill-palette-color="secondary" id="text-1"></path></svg></g></svg></g></svg></g></svg></g><g><svg viewBox="0 0 221.57045658459518 225.49844940696198" height="225.49844940696198" width="221.57045658459518"><g><svg xmlns="http://www.w3.org/2000/svg" xmlns:xlink="http://www.w3.org/1999/xlink" version="1.1" x="0" y="0" viewBox="5.2120000000000095 4.42 89.57600000000002 91.16399999999999" enable-background="new 0 0 100 100" xml:space="preserve" height="225.49844940696198" width="221.57045658459518" class="icon-icon-0" data-fill-palette-color="accent" id="icon-0"><path d="M94.205 66.997c-0.373-0.091-0.934-0.271-1.623-0.409-1.385-0.301-3.332-0.607-5.609-0.743-2.279-0.143-4.887-0.096-7.625 0.16-2.738 0.261-5.598 0.778-8.408 1.483-2.809 0.719-5.57 1.625-8.1 2.703-0.775 0.33-1.52 0.676-2.25 1.025 0.459-0.389 0.918-0.779 1.383-1.197 1.246-1.133 2.537-2.342 3.803-3.645 2.547-2.598 5.047-5.532 7.373-8.598 2.312-3.075 4.459-6.277 6.268-9.434 1.803-3.16 3.312-6.24 4.441-9.006 1.137-2.76 1.904-5.194 2.365-6.958 0.244-0.872 0.369-1.607 0.484-2.086 0.102-0.488 0.137-0.763 0.137-0.763s-0.256 0.109-0.697 0.339c-0.432 0.24-1.104 0.56-1.879 1.029-1.57 0.921-3.705 2.322-6.055 4.163-2.357 1.835-4.914 4.123-7.467 6.716-2.549 2.595-5.049 5.528-7.383 8.588-2.322 3.07-4.471 6.27-6.279 9.425-0.764 1.315-1.447 2.622-2.094 3.897 0.576-2.649 1.082-5.522 1.455-8.55 0.545-4.348 0.805-8.985 0.809-13.623-0.016-4.637-0.279-9.273-0.828-13.621-0.537-4.348-1.342-8.404-2.242-11.882-0.898-3.478-1.91-6.376-2.734-8.405C50.635 5.58 50 4.42 50 4.42s-0.635 1.159-1.449 3.188c-0.823 2.029-1.834 4.927-2.734 8.405s-1.705 7.535-2.242 11.882c-0.551 4.347-0.814 8.984-0.827 13.621 0.002 4.638 0.264 9.275 0.809 13.623 0.372 3.028 0.88 5.902 1.456 8.552-0.648-1.276-1.332-2.584-2.095-3.899-1.81-3.155-3.958-6.355-6.28-9.425-2.332-3.061-4.834-5.994-7.382-8.588-2.554-2.593-5.109-4.88-7.468-6.716-2.35-1.841-4.483-3.242-6.055-4.163-0.774-0.469-1.447-0.789-1.879-1.029-0.443-0.23-0.697-0.339-0.697-0.339s0.036 0.274 0.139 0.763c0.113 0.479 0.24 1.214 0.482 2.086 0.461 1.763 1.23 4.197 2.367 6.958 1.127 2.766 2.637 5.847 4.44 9.006 1.808 3.157 3.953 6.359 6.268 9.434 2.326 3.065 4.825 6 7.372 8.598 1.266 1.303 2.559 2.512 3.803 3.645 0.467 0.418 0.925 0.809 1.384 1.197-0.729-0.35-1.475-0.695-2.251-1.025-2.53-1.078-5.289-1.984-8.098-2.703-2.813-0.705-5.672-1.223-8.411-1.483-2.737-0.256-5.343-0.303-7.624-0.16-2.277 0.136-4.225 0.442-5.609 0.743-0.69 0.139-1.25 0.318-1.623 0.409-0.377 0.104-0.584 0.181-0.584 0.181s0.146 0.166 0.427 0.438c0.284 0.259 0.69 0.686 1.229 1.135 1.073 0.926 2.637 2.127 4.574 3.334 1.934 1.215 4.244 2.42 6.773 3.502 2.53 1.08 5.29 1.992 8.096 2.717 2.811 0.713 5.669 1.234 8.406 1.496 1.79 0.172 3.512 0.24 5.133 0.234-1.876 0.717-3.811 1.623-5.648 2.701-1.753 1.014-3.42 2.17-4.917 3.369-1.497 1.197-2.815 2.455-3.884 3.637-1.069 1.18-1.891 2.285-2.436 3.111-0.54 0.834-0.812 1.373-0.812 1.373s0.603 0.031 1.593-0.021c0.989-0.061 2.357-0.223 3.912-0.562 1.557-0.338 3.303-0.855 5.088-1.559 1.785-0.701 3.619-1.572 5.368-2.586 3.513-2.01 6.675-4.619 8.805-6.996 0.564-0.623 1.056-1.223 1.476-1.775 0.047 0.262 0.095 0.541 0.145 0.846 0.128 0.795 0.247 1.729 0.341 2.734 0.078 1.006 0.149 2.086 0.124 3.158 0.001 1.08-0.098 2.15-0.258 3.146-0.053 0.508-0.213 0.963-0.307 1.42-0.103 0.457-0.29 0.848-0.416 1.238-0.129 0.389-0.346 0.691-0.488 0.992-0.141 0.307-0.322 0.531-0.473 0.719-0.299 0.383-0.469 0.602-0.469 0.602s0.21-0.184 0.574-0.504c0.188-0.162 0.419-0.357 0.619-0.637 0.201-0.275 0.491-0.557 0.698-0.928 0.204-0.369 0.483-0.756 0.68-1.203 0.187-0.449 0.449-0.914 0.603-1.424 0.367-1.008 0.688-2.115 0.9-3.236 0.24-1.121 0.383-2.256 0.5-3.322 0.104-1.066 0.166-2.068 0.189-2.926 0.012-0.355 0.018-0.68 0.02-0.98 0.469 0.633 1.031 1.336 1.705 2.08 2.129 2.377 5.291 4.988 8.805 6.996 1.75 1.014 3.582 1.885 5.367 2.586 1.785 0.703 3.531 1.221 5.088 1.559 1.557 0.34 2.924 0.502 3.912 0.562 0.99 0.053 1.594 0.021 1.594 0.021s-0.271-0.539-0.811-1.373c-0.545-0.826-1.367-1.932-2.438-3.111-1.066-1.182-2.385-2.439-3.883-3.637-1.496-1.199-3.164-2.355-4.916-3.369-1.84-1.078-3.773-1.984-5.65-2.701 1.621 0.006 3.344-0.062 5.133-0.234 2.738-0.262 5.596-0.783 8.406-1.496 2.807-0.725 5.566-1.637 8.096-2.717 2.527-1.082 4.84-2.287 6.773-3.502 1.936-1.207 3.5-2.408 4.574-3.334 0.539-0.449 0.945-0.876 1.23-1.135 0.281-0.271 0.426-0.438 0.426-0.438S94.582 67.102 94.205 66.997zM50.049 78.684l-0.182 0.025c0.045-0.014 0.1-0.029 0.133-0.041C50.012 78.674 50.036 78.68 50.049 78.684z" fill="#000000" data-fill-palette-color="accent"></path></svg></g></svg></g></svg></g><defs></defs></svg><rect width="395.52" height="138.60257986908056" fill="none" stroke="none" visibility="hidden"></rect></g></svg></g></svg>